<svg xmlns="http://www.w3.org/2000/svg" width="32" height="32" fill="none" viewBox="0 0 32 32"><path fill="url(#paint0_linear_8_13)" fill-rule="evenodd" d="M23.5903 12.1038V13.4918V22.5133C23.5903 22.9233 23.6874 23.3019 23.8496 23.6488C24.1087 24.2482 24.5949 24.7213 25.2428 25.0052L27.8352 26.1093L31.1081 24.2797L23.5903 12.1038Z" clip-rule="evenodd"/><path fill="url(#paint1_linear_8_13)" fill-rule="evenodd" d="M5.92994 4.94678L3.40242 3.84274L0 5.64074L7.55014 17.722V7.37565C7.58254 6.33469 6.93447 5.35685 5.92994 4.94678Z" clip-rule="evenodd"/><path fill="url(#paint2_linear_8_13)" fill-rule="evenodd" d="M19.1505 24.2797L14.776 17.2139L11.6004 12.1038V22.5448C11.6004 22.9549 11.6976 23.3334 11.8596 23.6804C12.1189 24.2482 12.6049 24.7213 13.253 25.0052L15.8453 26.1093L17.7571 25.0683L19.1505 24.2797Z" clip-rule="evenodd"/><path fill="url(#paint3_linear_8_13)" fill-rule="evenodd" d="M17.7897 4.94403L16.1047 4.21852L15.2622 3.84L13.0587 5.00712L11.8598 5.63799L14.0308 9.13936L19.4423 17.7508V7.3729C19.4423 6.33197 18.7942 5.3541 17.7897 4.94403Z" clip-rule="evenodd"/><defs><linearGradient id="paint0_linear_8_13" x1="31.108" x2="19.784" y1="12.104" y2="16.669" gradientUnits="userSpaceOnUse"><stop offset=".099" stop-color="#F56789"/><stop offset="1" stop-color="#C4103B"/></linearGradient><linearGradient id="paint1_linear_8_13" x1="7.551" x2="-3.78" y1="3.843" y2="8.473" gradientUnits="userSpaceOnUse"><stop offset=".099" stop-color="#F56789"/><stop offset="1" stop-color="#C4103B"/></linearGradient><linearGradient id="paint2_linear_8_13" x1="19.151" x2="7.792" y1="12.104" y2="16.703" gradientUnits="userSpaceOnUse"><stop offset=".099" stop-color="#F56789"/><stop offset="1" stop-color="#C4103B"/></linearGradient><linearGradient id="paint3_linear_8_13" x1="19.442" x2="8.071" y1="3.84" y2="8.496" gradientUnits="userSpaceOnUse"><stop offset=".099" stop-color="#F56789"/><stop offset="1" stop-color="#C4103B"/></linearGradient></defs></svg>